<svg id="레이어_1" data-name="레이어 1" xmlns="http://www.w3.org/2000/svg" viewBox="0 0 100 100"><defs><style>.cls-1{fill:#fff;}</style></defs><path id="패스_396" data-name="패스 396" class="cls-1" d="M.76,51.26a5.1,5.1,0,0,1-.26-1.4,4.29,4.29,0,0,1,1.28-2.94L48.27,1.34A2.91,2.91,0,0,1,50.06.5l1.79.84L98.22,46.92a3.84,3.84,0,0,1,1.28,2.94,5.1,5.1,0,0,1-.26,1.4,3.44,3.44,0,0,1-3.57,2.38H88.26V99.5H60.54V71.88a2.56,2.56,0,0,0-2.43-2.67h-16a2.56,2.56,0,0,0-2.42,2.67V99.5h-28V53.65H4.33A3.56,3.56,0,0,1,.76,51.26Z"/></svg>