<?xml version="1.0" encoding="utf-8"?>
<!-- Generator: Adobe Illustrator 25.0.1, SVG Export Plug-In . SVG Version: 6.00 Build 0)  -->
<svg version="1.1" id="레이어_1" xmlns="http://www.w3.org/2000/svg" xmlns:xlink="http://www.w3.org/1999/xlink" x="0px"
	 y="0px" viewBox="0 0 100 100" style="enable-background:new 0 0 100 100;" xml:space="preserve">
<style type="text/css">
	.st0{fill:#FFFFFF;}
	.st1{fill-rule:evenodd;clip-rule:evenodd;fill:#FFFFFF;}
	.st2{fill:none;stroke:#FFFFFF;stroke-width:10;stroke-miterlimit:10;}
	.st3{fill:none;stroke:#FFFFFF;stroke-width:12;stroke-linecap:round;stroke-miterlimit:10;}
</style>
<g>
	<path class="st0" d="M88.5,8.1H78.4V3.3c0-1.8-1.5-3.3-3.3-3.3h-8.9C64.5,0,63,1.5,63,3.3v4.8H37V3.3C37,1.5,35.5,0,33.8,0h-8.9
		c-1.8,0-3.3,1.5-3.3,3.3v4.8H11.5C5.2,8.1,0,13.3,0,19.6v68.9C0,94.8,5.2,100,11.5,100h77c6.3,0,11.5-5.2,11.5-11.5V19.6
		C100,13.3,94.8,8.1,88.5,8.1z M88.5,92.4h-77c-2.1,0-3.8-1.7-3.8-3.8V29.3h84.7v59.2C92.3,90.7,90.6,92.4,88.5,92.4z"/>
	<path class="st0" d="M31.2,37.3H17.7c-1.2,0-2.2,0.9-2.2,2.2v6.3c0,1.2,0.9,2.2,2.2,2.2h13.5c1.2,0,2.2-0.9,2.2-2.2v-6.3
		C33.4,38.3,32.5,37.3,31.2,37.3z"/>
	<path class="st0" d="M56.9,37.3H43.4c-1.2,0-2.2,0.9-2.2,2.2v6.3c0,1.2,0.9,2.2,2.2,2.2h13.5c1.2,0,2.2-0.9,2.2-2.2v-6.3
		C59.1,38.3,58.1,37.3,56.9,37.3z"/>
	<path class="st0" d="M82.5,37.3H69c-1.2,0-2.2,0.9-2.2,2.2v6.3c0,1.2,0.9,2.2,2.2,2.2h13.5c1.2,0,2.2-0.9,2.2-2.2v-6.3
		C84.7,38.3,83.8,37.3,82.5,37.3z"/>
	<path class="st0" d="M31.2,55.6H17.7c-1.2,0-2.2,0.9-2.2,2.2v6.3c0,1.2,0.9,2.2,2.2,2.2h13.5c1.2,0,2.2-0.9,2.2-2.2v-6.3
		C33.4,56.7,32.5,55.6,31.2,55.6z"/>
	<path class="st0" d="M56.9,55.6H43.4c-1.2,0-2.2,0.9-2.2,2.2v6.3c0,1.2,0.9,2.2,2.2,2.2h13.5c1.2,0,2.2-0.9,2.2-2.2v-6.3
		C59.1,56.7,58.1,55.6,56.9,55.6z"/>
	<path class="st0" d="M82.5,55.6H69c-1.2,0-2.2,0.9-2.2,2.2v6.3c0,1.2,0.9,2.2,2.2,2.2h13.5c1.2,0,2.2-0.9,2.2-2.2v-6.3
		C84.7,56.7,83.8,55.6,82.5,55.6z"/>
	<path class="st0" d="M31.2,74.1H17.7c-1.2,0-2.2,0.9-2.2,2.2v6.3c0,1.2,0.9,2.2,2.2,2.2h13.5c1.2,0,2.2-0.9,2.2-2.2v-6.3
		C33.4,75,32.5,74.1,31.2,74.1z"/>
	<path class="st0" d="M56.9,74.1H43.4c-1.2,0-2.2,0.9-2.2,2.2v6.3c0,1.2,0.9,2.2,2.2,2.2h13.5c1.2,0,2.2-0.9,2.2-2.2v-6.3
		C59.1,75,58.1,74.1,56.9,74.1z"/>
	<path class="st0" d="M82.5,74.1H69c-1.2,0-2.2,0.9-2.2,2.2v6.3c0,1.2,0.9,2.2,2.2,2.2h13.5c1.2,0,2.2-0.9,2.2-2.2v-6.3
		C84.7,75,83.8,74.1,82.5,74.1z"/>
</g>
</svg>
