<?xml version="1.0" encoding="utf-8"?>
<!-- Generator: Adobe Illustrator 25.0.1, SVG Export Plug-In . SVG Version: 6.00 Build 0)  -->
<svg version="1.1" id="레이어_1" xmlns="http://www.w3.org/2000/svg" xmlns:xlink="http://www.w3.org/1999/xlink" x="0px"
	 y="0px" viewBox="0 0 100 100" style="enable-background:new 0 0 100 100;" xml:space="preserve">
<style type="text/css">
	.st0{fill:#FFFFFF;}
	.st1{fill-rule:evenodd;clip-rule:evenodd;fill:#FFFFFF;}
	.st2{fill:none;stroke:#FFFFFF;stroke-width:10;stroke-miterlimit:10;}
	.st3{fill:none;stroke:#FFFFFF;stroke-width:12;stroke-linecap:round;stroke-miterlimit:10;}
</style>
<g>
	<path class="st1" d="M65,76.1c-2.6,10-28.8,10.7-26.9-2.6c1.1-8.8,2.9-17.3,4.4-26.2c0.7-5.5-2.9-3.7-5.9-4.8
		c-2.2-1.1-2.2-3.7,0.4-4.1c3.3-0.7,14.7-0.4,18.8-0.4c2.2,0,3.3,1.1,3.3,2.9c0.4,1.8,0,3.7-0.4,5.2c-1.5,8.5-3.7,17.3-4.4,25.4
		c-0.4,1.8,0,5.2,2.6,5.2c2.6-0.4,3.7-1.5,5.9-2.2C64.3,73.9,65,75,65,76.1z"/>
	<path class="st1" d="M52.1,16.4c5.2,0,8.8,4.1,8.8,8.8c0,5.2-4.1,9.2-8.8,8.8c-4.8,0-8.8-4.1-8.8-8.8S47.3,16.4,52.1,16.4z"/>
</g>
<g>
	<path class="st0" d="M50,5c24.8,0,45,20.2,45,45S74.8,95,50,95S5,74.8,5,50S25.2,5,50,5 M50,0C22.4,0,0,22.4,0,50s22.4,50,50,50
		s50-22.4,50-50S77.6,0,50,0L50,0z"/>
</g>
</svg>
