<?xml version="1.0" encoding="utf-8"?>
<!-- Generator: Adobe Illustrator 25.0.1, SVG Export Plug-In . SVG Version: 6.00 Build 0)  -->
<svg version="1.1" id="레이어_1" xmlns="http://www.w3.org/2000/svg" xmlns:xlink="http://www.w3.org/1999/xlink" x="0px"
	 y="0px" viewBox="0 0 100 100" style="enable-background:new 0 0 100 100;" xml:space="preserve">
<style type="text/css">
	.st0{fill:#FFFFFF;}
	.st1{fill-rule:evenodd;clip-rule:evenodd;fill:#FFFFFF;}
	.st2{fill:none;stroke:#FFFFFF;stroke-width:10;stroke-miterlimit:10;}
	.st3{fill:none;stroke:#FFFFFF;stroke-width:12;stroke-linecap:round;stroke-miterlimit:10;}
</style>
<g>
	<g>
		<path class="st0" d="M30.2,90c-2.4,0-4.5-1.6-5.2-4l-19.8-69c-0.8-2.9,0.8-6,3.7-6.8c2.9-0.9,5.9,0.8,6.8,3.8l19.8,69
			c0.8,2.9-0.8,6-3.7,6.8C31.2,89.9,30.7,90,30.2,90z"/>
		<path class="st0" d="M30.2,90c-0.5,0-1-0.1-1.5-0.2c-2.9-0.9-4.6-3.9-3.7-6.8l19.8-69c0.8-2.9,3.9-4.6,6.8-3.8
			c2.9,0.9,4.6,3.9,3.7,6.8L35.5,86C34.8,88.4,32.6,90,30.2,90z"/>
	</g>
	<g>
		<path class="st0" d="M69.8,90c-2.4,0-4.5-1.6-5.2-4l-19.8-69c-0.8-2.9,0.8-6,3.7-6.8c2.9-0.9,5.9,0.8,6.8,3.8l19.8,69
			c0.8,2.9-0.8,6-3.7,6.8C70.8,89.9,70.3,90,69.8,90z"/>
		<path class="st0" d="M69.8,90c-0.5,0-1-0.1-1.5-0.2c-2.9-0.9-4.6-3.9-3.7-6.8l19.8-69c0.8-2.9,3.9-4.6,6.8-3.8
			c2.9,0.9,4.6,3.9,3.7,6.8L75,86C74.3,88.4,72.1,90,69.8,90z"/>
	</g>
</g>
<line class="st3" x1="6" y1="50" x2="94" y2="50"/>
</svg>
