<?xml version="1.0" encoding="utf-8"?>
<!-- Generator: Adobe Illustrator 25.0.1, SVG Export Plug-In . SVG Version: 6.00 Build 0)  -->
<svg version="1.1" id="레이어_1" xmlns="http://www.w3.org/2000/svg" xmlns:xlink="http://www.w3.org/1999/xlink" x="0px"
	 y="0px" viewBox="0 0 100 100" style="enable-background:new 0 0 100 100;" xml:space="preserve">
<style type="text/css">
	.st0{fill:#FFFFFF;}
	.st1{fill-rule:evenodd;clip-rule:evenodd;fill:#FFFFFF;}
	.st2{fill:none;stroke:#FFFFFF;stroke-width:10;stroke-miterlimit:10;}
	.st3{fill:none;stroke:#FFFFFF;stroke-width:12;stroke-linecap:round;stroke-miterlimit:10;}
</style>
<g transform="translate(0,-288.53333)">
	<g transform="translate(0,-1004.3622)">
		<path class="st0" d="M60.5,1292.9c-1.5,0-2.7,1.2-2.7,2.7v36.7c0,1.5,1.2,2.7,2.7,2.7h36.7c1.5,0,2.7-1.2,2.7-2.7
			C100,1310.6,82.3,1292.9,60.5,1292.9z M46.4,1300.2c-18.7,0-35.7,11.3-42.8,28.6s-3.2,37.3,10,50.5c13.3,13.3,33.2,17.2,50.5,10.1
			s28.6-24.1,28.6-42.8c0-1.8-1.4-3.2-3.2-3.2H49.6v-39.9C49.6,1301.6,48.1,1300.2,46.4,1300.2z M43.1,1307.1v39.4
			c0,1.8,1.4,3.2,3.2,3.2h39.4c-1.2,14.8-10.3,27.9-24.2,33.7c-14.9,6.2-32.1,2.8-43.5-8.7c-11.4-11.4-14.8-28.6-8.7-43.5
			C15.2,1317.3,28.3,1308.3,43.1,1307.1z"/>
	</g>
</g>
</svg>
