<svg xmlns="http://www.w3.org/2000/svg" width="20" height="24" viewBox="0 0 20 24">
  <g id="noun_Alarm_2199794" transform="translate(-2.487 -0.69)">
    <path id="패스_168" data-name="패스 168" d="M21.662,17.98c-1.946-1.687-3.059-3.093-3.059-9a6.072,6.072,0,0,0-4.284-6.012c0-.01,0-.02,0-.032A2.075,2.075,0,0,0,12.486.69a2.074,2.074,0,0,0-1.835,2.249c0,.012,0,.022,0,.032A6.071,6.071,0,0,0,6.37,8.984c0,5.9-1.112,7.31-3.059,9s0,2.389,1.251,2.389H20.41C21.662,20.369,23.609,19.666,21.662,17.98Z" transform="translate(0)" fill="#fff"/>
    <path id="패스_169" data-name="패스 169" d="M11.735,28.42a4.592,4.592,0,0,0,8.531,0H11.735Z" transform="translate(-3.513 -6.621)" fill="#fff"/>
  </g>
</svg>
