<?xml version="1.0" encoding="utf-8"?>
<!-- Generator: Adobe Illustrator 25.4.1, SVG Export Plug-In . SVG Version: 6.00 Build 0)  -->
<svg version="1.1" id="레이어_1" xmlns="http://www.w3.org/2000/svg" xmlns:xlink="http://www.w3.org/1999/xlink" x="0px"
	 y="0px" viewBox="0 0 100 100" style="enable-background:new 0 0 100 100;" xml:space="preserve">
<style type="text/css">
	.st0{fill:#FFFFFF;}
	.st1{fill-rule:evenodd;clip-rule:evenodd;fill:#FFFFFF;}
</style>
<g>
	<path class="st0" d="M50,5c24.8,0,45,20.2,45,45S74.8,95,50,95S5,74.8,5,50S25.2,5,50,5 M50,0C22.4,0,0,22.4,0,50s22.4,50,50,50
		s50-22.4,50-50S77.6,0,50,0L50,0z"/>
</g>
<g>
	<path class="st1" d="M49.8,70c3.5,0,6.3,2.8,6.3,6.2c0,3.4-2.8,6.2-6.3,6.2c-3.5,0-6.3-2.8-6.3-6.2C43.6,72.8,46.4,70,49.8,70z"/>
	<path class="st1" d="M51.7,17.6C65.4,17.8,77,32.8,67.6,46c-2.2,2.9-5.1,3.8-7.5,5.1c-4.4,2.4-5.6,1.8-5.6,7.3c0,6.4-9.6,6.4-9.9,0
		l-0.2-3.9c-0.2-3.7,2.5-6.8,4.7-8.4c3.3-2.3,5.2-2.2,8.1-5.8c6.7-8.5-5.5-17.1-15-10.5c-2.4,1.7-3.9,4-3.9,8.4
		c0.2,6.4-9.6,6.4-9.4,0c0-7,3.2-12.7,7.7-15.9C41.2,18.9,46.6,17.6,51.7,17.6z"/>
</g>
</svg>
