<?xml version="1.0" encoding="utf-8"?>
<!-- Generator: Adobe Illustrator 25.0.1, SVG Export Plug-In . SVG Version: 6.00 Build 0)  -->
<svg version="1.1" id="레이어_1" xmlns="http://www.w3.org/2000/svg" xmlns:xlink="http://www.w3.org/1999/xlink" x="0px"
	 y="0px" viewBox="0 0 100 100" style="enable-background:new 0 0 100 100;" xml:space="preserve">
<style type="text/css">
	.st0{fill:#FFFFFF;}
	.st1{fill-rule:evenodd;clip-rule:evenodd;fill:#FFFFFF;}
	.st2{fill:none;stroke:#FFFFFF;stroke-width:10;stroke-miterlimit:10;}
	.st3{fill:none;stroke:#FFFFFF;stroke-width:12;stroke-linecap:round;stroke-miterlimit:10;}
</style>
<g>
	<path class="st1" d="M45.2,0c-3.9,0-7.1,3.2-7.1,7.1v4.3c-2.4,0.7-4.7,1.7-6.9,2.9l-3-3c-1.4-1.4-3.2-2.1-5.1-2.1
		c-1.8,0-3.7,0.7-5.1,2.1L11.3,18c-2.8,2.8-2.8,7.3,0,10.1l3,3c-1.2,2.2-2.1,4.5-2.9,6.9H7.1c-3.9,0-7.1,3.2-7.1,7.1v9.5
		c0,3.9,3.2,7.1,7.1,7.1h4.3c0.7,2.4,1.7,4.7,2.9,6.9l-3,3c-2.8,2.8-2.8,7.3,0,10.1l6.7,6.7c2.8,2.8,7.3,2.8,10.1,0l3-3
		c2.2,1.2,4.5,2.1,6.9,2.9v4.3c0,3.9,3.2,7.1,7.1,7.1h9.5c3.9,0,7.1-3.2,7.1-7.1v-4.3c2.4-0.7,4.7-1.7,6.9-2.9l3,3
		c2.8,2.8,7.3,2.8,10.1,0l6.7-6.7c2.8-2.8,2.8-7.3,0-10.1l-3-3c1.2-2.2,2.1-4.5,2.9-6.9h4.3c3.9,0,7.1-3.2,7.1-7.1v-9.5
		c0-2-0.8-3.8-2.1-5.1c-1.3-1.3-3.1-2.1-5.1-2.1h-4.3c-0.7-2.4-1.7-4.7-2.9-6.9l3-3c2.8-2.8,2.8-7.3,0-10.1L82,11.3
		c-1.4-1.4-3.2-2.1-5.1-2.1s-3.7,0.7-5.1,2.1l-3,3c-2.2-1.2-4.5-2.1-6.9-2.9V7.1c0-2-0.8-3.8-2.1-5.1C58.5,0.8,56.7,0,54.8,0H45.2z
		 M50,23.8c-14.4,0-26.2,11.8-26.2,26.2c0,14.4,11.8,26.2,26.2,26.2S76.2,64.4,76.2,50S64.4,23.8,50,23.8z"/>
</g>
</svg>
