<?xml version="1.0" encoding="utf-8"?>
<!-- Generator: Adobe Illustrator 25.4.1, SVG Export Plug-In . SVG Version: 6.00 Build 0)  -->
<svg version="1.1"
	 id="레이어_1" xmlns:cc="http://creativecommons.org/ns#" xmlns:dc="http://purl.org/dc/elements/1.1/" xmlns:inkscape="http://www.inkscape.org/namespaces/inkscape" xmlns:rdf="http://www.w3.org/1999/02/22-rdf-syntax-ns#" xmlns:sodipodi="http://sodipodi.sourceforge.net/DTD/sodipodi-0.dtd" xmlns:svg="http://www.w3.org/2000/svg"
	 xmlns="http://www.w3.org/2000/svg" xmlns:xlink="http://www.w3.org/1999/xlink" x="0px" y="0px" viewBox="0 0 100 100"
	 style="enable-background:new 0 0 100 100;" xml:space="preserve">
<style type="text/css">
	.st0{fill:#FFFFFF;}
</style>
<g>
	<path class="st0" d="M50,13.5c-2.1,0-3.8,1.7-3.8,3.8l0,0c0,2.1,1.7,3.8,3.8,3.8c0,0,0,0,0,0c2.1,0,3.8-1.7,3.8-3.8l0,0
		C53.8,15.2,52.1,13.5,50,13.5C50,13.5,50,13.5,50,13.5z"/>
	<path class="st0" d="M30.8,34.8v7.7h38.4v-7.7H30.8z"/>
	<path class="st0" d="M30.8,53.8v7.7h38.4v-7.7H30.8z"/>
	<path class="st0" d="M30.8,72.9v7.7h38.4v-7.7H30.8z"/>
	<g>
		<path class="st0" d="M85,5v90H15V5H85 M90,0H10v100h80V0L90,0z"/>
	</g>
</g>
</svg>
