<?xml version="1.0" encoding="utf-8"?>
<!-- Generator: Adobe Illustrator 27.7.0, SVG Export Plug-In . SVG Version: 6.00 Build 0)  -->
<svg version="1.1" id="Layer_1" xmlns="http://www.w3.org/2000/svg" xmlns:xlink="http://www.w3.org/1999/xlink" x="0px" y="0px"
	 viewBox="0 0 20 10.2" style="enable-background:new 0 0 20 10.2;" xml:space="preserve">
<path d="M10,10.2c-0.2,0-0.4,0-0.5-0.1C9.3,10.1,9.2,10,9,9.9L0.2,1C0.1,0.9,0,0.8,0,0.6s0-0.3,0.2-0.4S0.4,0,0.6,0S0.8,0.1,1,0.2
	l9,9l9-9C19.1,0.1,19.2,0,19.4,0c0.2,0,0.3,0,0.4,0.2C19.9,0.3,20,0.5,20,0.6S19.9,0.9,19.8,1l-8.9,8.9c-0.1,0.1-0.3,0.2-0.4,0.3
	C10.4,10.2,10.2,10.2,10,10.2z"/>
</svg>
