<svg id="레이어_1" data-name="레이어 1" xmlns="http://www.w3.org/2000/svg" viewBox="0 0 100 100"><path d="M23.35,0a25.39,25.39,0,0,0-18,9.43c-4.77,6-7.13,14.85-3.68,26.13s13.6,25.11,25.67,37.15S53.07,94.88,64.43,98.36s20.17,1.1,26.14-3.68A25.32,25.32,0,0,0,100,77a11.14,11.14,0,0,0-3.47-8.34,28.11,28.11,0,0,0-7.71-5.35,58.14,58.14,0,0,0-11.09-4.08,1.75,1.75,0,0,0-1.56.44L67.76,68a78.77,78.77,0,0,1-20.5-15.26A78.8,78.8,0,0,1,32,32.24l8.38-8.39a1.69,1.69,0,0,0,.45-1.57,58.4,58.4,0,0,0-4.08-11.09,27.91,27.91,0,0,0-5.35-7.7A11.4,11.4,0,0,0,23.35,0Z"/></svg>