<?xml version="1.0" encoding="utf-8"?>
<!-- Generator: Adobe Illustrator 27.7.0, SVG Export Plug-In . SVG Version: 6.00 Build 0)  -->
<svg version="1.1" id="Layer_1" xmlns="http://www.w3.org/2000/svg" xmlns:xlink="http://www.w3.org/1999/xlink" x="0px" y="0px"
	 viewBox="0 0 24.3 24.3" style="enable-background:new 0 0 24.3 24.3;" xml:space="preserve">
<path d="M12.2,13.3L1.4,24.1c-0.1,0.1-0.3,0.2-0.5,0.2c-0.2,0-0.4-0.1-0.6-0.2C0.1,23.9,0,23.7,0,23.5c0-0.2,0.1-0.4,0.3-0.6
	l10.8-10.8L0.3,1.4C0.1,1.2,0,1,0,0.8c0-0.2,0.1-0.4,0.2-0.6C0.4,0.1,0.6,0,0.8,0C1,0,1.2,0.1,1.4,0.3l10.8,10.8L23,0.3
	C23.1,0.1,23.3,0,23.5,0c0.2,0,0.4,0.1,0.6,0.2c0.2,0.2,0.3,0.4,0.3,0.6c0,0.2-0.1,0.4-0.3,0.6L13.3,12.2L24.1,23
	c0.1,0.1,0.2,0.3,0.2,0.5c0,0.2-0.1,0.4-0.2,0.6c-0.2,0.2-0.4,0.3-0.5,0.3s-0.4-0.1-0.5-0.3L12.2,13.3z"/>
</svg>
