<?xml version="1.0" encoding="utf-8"?>
<!-- Generator: Adobe Illustrator 25.0.1, SVG Export Plug-In . SVG Version: 6.00 Build 0)  -->
<svg version="1.1" id="레이어_1" xmlns="http://www.w3.org/2000/svg" xmlns:xlink="http://www.w3.org/1999/xlink" x="0px"
	 y="0px" viewBox="0 0 100 100" style="enable-background:new 0 0 100 100;" xml:space="preserve">
<style type="text/css">
	.st0{fill:#FFFFFF;}
	.st1{fill:none;stroke:#FFFFFF;stroke-width:14;stroke-miterlimit:10;}
	.st2{fill-rule:evenodd;clip-rule:evenodd;fill:#FFFFFF;}
	.st3{fill:none;stroke:#FFFFFF;stroke-width:12;stroke-linecap:round;stroke-miterlimit:10;}
	.st4{fill-rule:evenodd;clip-rule:evenodd;fill:#CCCCCC;}
	.st5{fill-rule:evenodd;clip-rule:evenodd;fill:#444444;}
</style>
<g>
	<path d="M99,100c-0.3,0-0.5-0.1-0.7-0.3l-98-98c-0.4-0.4-0.4-1,0-1.4s1-0.4,1.4,0l98,98c0.4,0.4,0.4,1,0,1.4
		C99.5,99.9,99.3,100,99,100z"/>
	<path d="M1,100c-0.3,0-0.5-0.1-0.7-0.3c-0.4-0.4-0.4-1,0-1.4l98-98c0.4-0.4,1-0.4,1.4,0s0.4,1,0,1.4l-98,98C1.5,99.9,1.2,100,1,100
		z"/>
</g>
</svg>
