<svg id="그룹_611" data-name="그룹 611" xmlns="http://www.w3.org/2000/svg" width="353.296" height="98.141" viewBox="0 0 353.296 98.141">
  <path id="패스_813" data-name="패스 813" d="M118.38,552.942a25.66,25.66,0,0,1-9.122-5.3,6.082,6.082,0,0,1-2.345-4.6,4.9,4.9,0,0,1,1.475-3.521,4.8,4.8,0,0,1,3.563-1.52,4.61,4.61,0,0,1,2.953,1.044,25.583,25.583,0,0,0,6.774,4.167,21.206,21.206,0,0,0,7.82,1.306,15.662,15.662,0,0,0,8.384-2.173q3.517-2.17,3.518-5.384a6.908,6.908,0,0,0-3.475-6.125q-3.475-2.213-11.034-3.344-19.024-2.779-19.024-17.721a16.016,16.016,0,0,1,2.867-9.513,18.1,18.1,0,0,1,7.817-6.167,27.677,27.677,0,0,1,11.033-2.128,31.566,31.566,0,0,1,10.293,1.649,24.983,24.983,0,0,1,8.036,4.343,5.8,5.8,0,0,1,2.519,4.6,4.905,4.905,0,0,1-1.475,3.519,4.7,4.7,0,0,1-3.476,1.519,3.817,3.817,0,0,1-2.345-.782,23,23,0,0,0-6.3-3.344,20.891,20.891,0,0,0-7.254-1.52q-5.471,0-8.469,2.041a6.485,6.485,0,0,0,.087,10.99q3.083,1.909,9.686,3.128a50.259,50.259,0,0,1,11.945,3.344,15.275,15.275,0,0,1,6.733,5.559q2.259,3.521,2.257,9.339a15.6,15.6,0,0,1-3.083,9.6,19.861,19.861,0,0,1-8.21,6.343,27.537,27.537,0,0,1-11.033,2.215A36.332,36.332,0,0,1,118.38,552.942Z" transform="translate(-106.914 -456.366)" fill="#040000"/>
  <path id="패스_814" data-name="패스 814" d="M219.584,494.461a5.174,5.174,0,0,1,1.475,3.822v50.21a5.056,5.056,0,0,1-1.563,3.78,5.5,5.5,0,0,1-4,1.518,5.167,5.167,0,0,1-3.735-1.518,5.059,5.059,0,0,1-1.565-3.78v-20.24H182.49v20.24a4.927,4.927,0,0,1-1.652,3.78,5.468,5.468,0,0,1-3.822,1.518,5.234,5.234,0,0,1-3.865-1.518,5.129,5.129,0,0,1-1.519-3.78v-50.21a5.065,5.065,0,0,1,1.562-3.779,5.511,5.511,0,0,1,4-1.52,5.18,5.18,0,0,1,3.735,1.52,5.055,5.055,0,0,1,1.564,3.779v19.981H210.2V498.282a4.931,4.931,0,0,1,1.652-3.779,5.473,5.473,0,0,1,3.822-1.52A5.281,5.281,0,0,1,219.584,494.461Z" transform="translate(-116.733 -456.521)" fill="#00a0e9"/>
  <path id="패스_815" data-name="패스 815" d="M254.468,552.272a5.468,5.468,0,0,1-3.822,1.518,5.234,5.234,0,0,1-3.865-1.518,5.13,5.13,0,0,1-1.52-3.78v-50.21a5.063,5.063,0,0,1,1.563-3.779,5.51,5.51,0,0,1,4-1.52,5.181,5.181,0,0,1,3.735,1.52,5.058,5.058,0,0,1,1.564,3.779v50.21A4.927,4.927,0,0,1,254.468,552.272Z" transform="translate(-127.903 -456.521)" fill="#040000"/>
  <path id="패스_816" data-name="패스 816" d="M329.933,494.4a5,5,0,0,1,1.607,3.78v50.3a5.129,5.129,0,0,1-5.387,5.3A5.431,5.431,0,0,1,322.2,552.3a5.094,5.094,0,0,1-1.52-3.822V513.469L306.347,535.36a7.441,7.441,0,0,1-2,1.695,4.028,4.028,0,0,1-2.345.563,3.859,3.859,0,0,1-2.257-.563,7.39,7.39,0,0,1-2-1.695l-14.334-22.674v35.79a5.351,5.351,0,0,1-1.39,3.822,4.774,4.774,0,0,1-3.648,1.475,4.6,4.6,0,0,1-3.561-1.518,5.381,5.381,0,0,1-1.39-3.78v-50.3a5.026,5.026,0,0,1,1.607-3.735,5.344,5.344,0,0,1,3.865-1.565,5.755,5.755,0,0,1,2.606.653,5.03,5.03,0,0,1,2,1.694l18.936,29.1,19.461-29.1a5.259,5.259,0,0,1,1.866-1.694,4.854,4.854,0,0,1,2.39-.653A5.336,5.336,0,0,1,329.933,494.4Z" transform="translate(-132.176 -456.505)" fill="#040000"/>
  <path id="패스_817" data-name="패스 817" d="M390.824,495.634a19.635,19.635,0,0,1,6.428,7.121,20.764,20.764,0,0,1,0,19.5,19.521,19.521,0,0,1-6.428,7.169,14.992,14.992,0,0,1-8.427,2.648H367.282v16.418a5.351,5.351,0,0,1-1.39,3.822,4.772,4.772,0,0,1-3.648,1.475,4.6,4.6,0,0,1-3.561-1.518,5.381,5.381,0,0,1-1.39-3.78v-50.21a5.194,5.194,0,0,1,5.3-5.3h19.8A15,15,0,0,1,390.824,495.634Zm-5.168,25.148a10.257,10.257,0,0,0,2.606-3.605,11.31,11.31,0,0,0,0-9.3,9.848,9.848,0,0,0-2.606-3.56,5.065,5.065,0,0,0-3.259-1.346H367.282v19.2H382.4A4.988,4.988,0,0,0,385.656,520.782Z" transform="translate(-144.9 -456.521)" fill="#040000"/>
  <path id="패스_818" data-name="패스 818" d="M456.355,545.062a4.847,4.847,0,0,1,1.52,3.69,4.748,4.748,0,0,1-1.52,3.605,5.293,5.293,0,0,1-3.78,1.433H424.344a5.188,5.188,0,0,1-5.3-5.3v-50.21a5.065,5.065,0,0,1,1.562-3.779,5.511,5.511,0,0,1,4-1.52,5.181,5.181,0,0,1,3.735,1.52,5.055,5.055,0,0,1,1.564,3.779v45.347h22.672A5.293,5.293,0,0,1,456.355,545.062Z" transform="translate(-154.268 -456.521)" fill="#040000"/>
  <path id="패스_819" data-name="패스 819" d="M514.776,545.321a4.841,4.841,0,0,1,1.52,3.52,4.608,4.608,0,0,1-1.52,3.559,5.386,5.386,0,0,1-3.78,1.39H481.9a5.188,5.188,0,0,1-5.3-5.3v-50.21a5.192,5.192,0,0,1,5.3-5.3H511a5.307,5.307,0,0,1,3.78,1.433,4.859,4.859,0,0,1,1.52,3.693,4.535,4.535,0,0,1-1.478,3.518A5.454,5.454,0,0,1,511,502.974H487.454V517.74h19.632a5.3,5.3,0,0,1,3.78,1.435,4.853,4.853,0,0,1,1.52,3.69,4.53,4.53,0,0,1-1.478,3.519,5.441,5.441,0,0,1-3.822,1.348H487.454V543.8H511A5.136,5.136,0,0,1,514.776,545.321Z" transform="translate(-163 -456.521)" fill="#040000"/>
  <g id="그룹_610" data-name="그룹 610" transform="translate(54.87)">
    <path id="패스_820" data-name="패스 820" d="M175.82,478.966a4.223,4.223,0,0,1-2.986-7.209l20.521-20.521a4.222,4.222,0,0,1,5.971,5.972l-20.52,20.52A4.21,4.21,0,0,1,175.82,478.966Z" transform="translate(-171.597 -450)" fill="#00a0e9"/>
    <path id="패스_821" data-name="패스 821" d="M220.531,478.966a4.21,4.21,0,0,1-2.986-1.238l-20.52-20.52A4.222,4.222,0,1,1,203,451.237l20.521,20.521a4.223,4.223,0,0,1-2.986,7.209Z" transform="translate(-175.267 -450)" fill="#00a0e9"/>
  </g>
</svg>
