<svg id="Layer_1" data-name="Layer 1" xmlns="http://www.w3.org/2000/svg" viewBox="0 0 100 100"><defs><style>.cls-1{fill:#fff;}</style></defs><path id="패스_16" data-name="패스 16" class="cls-1" d="M50.6,0a27.93,27.93,0,0,0-28,27.9V28A28.32,28.32,0,0,0,38.7,53,45.89,45.89,0,0,0,4.18,97a3,3,0,1,0,6,0h0a39.88,39.88,0,0,1,79.74,0,3,3,0,0,0,5.95,0h0A45.89,45.89,0,0,0,61.3,53,27.64,27.64,0,0,0,77.37,28,26.24,26.24,0,0,0,52.91.06C52.14,0,51.37,0,50.6,0Zm0,6.54A21.33,21.33,0,0,1,72,27.8V28A21.85,21.85,0,0,1,50.6,50a21.73,21.73,0,0,1,0-43.45Z"/></svg>