<?xml version="1.0" encoding="utf-8"?>
<!-- Generator: Adobe Illustrator 26.4.1, SVG Export Plug-In . SVG Version: 6.00 Build 0)  -->
<svg version="1.1" id="레이어_1" xmlns="http://www.w3.org/2000/svg" xmlns:xlink="http://www.w3.org/1999/xlink" x="0px"
	 y="0px" viewBox="0 0 60 100" style="enable-background:new 0 0 60 100;" xml:space="preserve">
<style type="text/css">
	.st0{fill:#FFFFFF;}
</style>
<g>
	<path class="st0" d="M43.2,57C53.6,51.9,60,41.6,60,30c0-7.9-3.2-15.4-8.9-21.1C45.4,3.2,37.9,0,30,0C13.5,0,0,13.5,0,30h15.2
		c0-8.2,6.6-14.8,14.8-14.8c3.8,0,7.5,1.6,10.4,4.4c2.9,2.9,4.4,6.5,4.4,10.4c0,5.7-3.2,10.8-8.3,13.3c-8.6,4.2-14.1,13.4-14.1,23.6
		v5.5h15.2v-5.5C37.6,62.5,39.8,58.6,43.2,57L43.2,57z"/>
	<path class="st0" d="M30,81c-5.2,0-9.5,4.3-9.5,9.5c0,5.3,4.3,9.5,9.5,9.5c5.2,0,9.5-4.3,9.5-9.5C39.5,85.3,35.2,81,30,81z"/>
</g>
</svg>
