<?xml version="1.0" encoding="utf-8"?>
<!-- Generator: Adobe Illustrator 26.4.1, SVG Export Plug-In . SVG Version: 6.00 Build 0)  -->
<svg version="1.1" id="레이어_1" xmlns="http://www.w3.org/2000/svg" xmlns:xlink="http://www.w3.org/1999/xlink" x="0px"
	 y="0px" viewBox="0 0 100 97.6" style="enable-background:new 0 0 100 97.6;" xml:space="preserve">
<style type="text/css">
	.st0{fill:#FFFFFF;}
</style>
<path class="st0" d="M89.3,0H10.7C4.8,0,0,4.8,0,10.7v49.8c0,5.9,4.8,10.7,10.7,10.7h7.1l-7.6,26.5l35.1-26.5h44
	c5.9,0,10.7-4.8,10.7-10.7V10.7C100,4.8,95.2,0,89.3,0z M21.6,43.7c-4.5,0-8.1-3.6-8.1-8.1s3.6-8.1,8.1-8.1c4.5,0,8.1,3.6,8.1,8.1
	C29.7,40,26.1,43.7,21.6,43.7z M50,43.7c-4.5,0-8.1-3.6-8.1-8.1s3.6-8.1,8.1-8.1s8.1,3.6,8.1,8.1C58.1,40,54.5,43.7,50,43.7z
	 M78.4,43.7c-4.5,0-8.1-3.6-8.1-8.1s3.6-8.1,8.1-8.1c4.5,0,8.1,3.6,8.1,8.1C86.5,40,82.9,43.7,78.4,43.7z"/>
</svg>
