<svg id="레이어_1" data-name="레이어 1" xmlns="http://www.w3.org/2000/svg" viewBox="0 0 100 97.58"><defs><style>.cls-1{fill:#fff;}</style></defs><path d="M10.22,97.58,17.8,71.12H10.68A10.69,10.69,0,0,1,0,60.44V10.68A10.69,10.69,0,0,1,10.68,0H89.32A10.69,10.69,0,0,1,100,10.68V60.44A10.69,10.69,0,0,1,89.32,71.12h-44Z"/><path class="cls-1" d="M21.6,43.69a8.13,8.13,0,1,1,8.13-8.13A8.14,8.14,0,0,1,21.6,43.69Z"/><path class="cls-1" d="M50,43.69a8.13,8.13,0,1,1,8.13-8.13A8.14,8.14,0,0,1,50,43.69Z"/><path class="cls-1" d="M78.4,43.69a8.13,8.13,0,1,1,8.13-8.13A8.14,8.14,0,0,1,78.4,43.69Z"/></svg>